<?xml version="1.0" encoding="UTF-8" standalone="no"?>
<!-- Created with Inkscape (http://www.inkscape.org/) -->

<svg
   version="1.1"
   id="svg1"
   width="112"
   height="112"
   viewBox="0 0 112 112"
   sodipodi:docname="orienteering.svg"
   inkscape:version="1.4 (86a8ad7, 2024-10-11)"
   xmlns:inkscape="http://www.inkscape.org/namespaces/inkscape"
   xmlns:sodipodi="http://sodipodi.sourceforge.net/DTD/sodipodi-0.dtd"
   xmlns="http://www.w3.org/2000/svg"
   xmlns:svg="http://www.w3.org/2000/svg">
  <defs
     id="defs1" />
  <sodipodi:namedview
     id="namedview1"
     pagecolor="#ffffff"
     bordercolor="#000000"
     borderopacity="0.25"
     inkscape:showpageshadow="2"
     inkscape:pageopacity="0.0"
     inkscape:pagecheckerboard="0"
     inkscape:deskcolor="#d1d1d1"
     inkscape:zoom="1.8415179"
     inkscape:cx="-103.44727"
     inkscape:cy="130.59879"
     inkscape:window-width="1920"
     inkscape:window-height="1057"
     inkscape:window-x="-8"
     inkscape:window-y="-8"
     inkscape:window-maximized="1"
     inkscape:current-layer="g1" />
  <g
     inkscape:groupmode="layer"
     inkscape:label="Image"
     id="g1">
    <path
       style="fill:#000000"
       d="m 40.558294,101.7214 c -1.195873,-1.27295 -2.174314,-3.47481 -2.174314,-4.893014 0,-1.418208 -0.675,-2.837582 -1.5,-3.154164 -1.837078,-0.704953 -2.006681,-4.638374 -0.2,-4.638374 0.715,0 1.755906,0.455906 2.313125,1.013125 0.684167,0.684167 2.053451,0.650466 4.21712,-0.103793 3.587058,-1.250455 7.165655,0.345972 9.169755,4.090668 1.501884,2.806297 3.738522,2.491424 6.984358,-0.983255 4.906876,-5.252829 4.835088,-12.298808 -0.173097,-16.989365 -1.677567,-1.571172 -3.084624,-2.011745 -5.131933,-1.606894 -5.081196,1.004797 -9.679328,-2.563246 -9.679328,-7.510932 0,-1.05978 -1.35,-3.790493 -3,-6.068251 -4.190056,-5.784205 -4.052345,-9.988957 0.475442,-14.516747 3.258182,-3.25818 6.100907,-3.21 8.476665,-3.21 2.754545,0 5.311724,-0.0451 5.691225,-0.42455 0.379501,-0.37951 2.15734,-0.69001 3.950755,-0.69001 3.849719,0 7.670562,4.06455 7.20211,7.66148 -0.215007,1.6509 1.325352,3.91308 5.619541,8.252896 5.038225,5.091752 6.202995,5.824862 7.852235,4.942214 1.06507,-0.570009 2.781899,-0.877765 3.77744,-0.55496 1.003159,0.325276 2.752707,0.592069 2.752707,0.592069 0,0 1.957949,-3.369516 2.650983,-5.643695 0.377117,-1.237501 1.33035,-2.25 2.11829,-2.25 2.00963,0 1.79007,3.901562 -0.42385,7.531988 -1.31682,2.159333 -1.60588,3.689155 -1.00434,5.315278 0.98048,2.650485 -1.13698,7.554166 -3.684,8.531553 -5.17472,1.985723 -10.4552,-1.592897 -10.4552,-7.085557 0,-2.479135 -1.1713,-4.162246 -6.021458,-8.65264 -5.106586,-4.727799 -6.366614,-5.443577 -8.29321,-4.711086 -4.497986,1.710131 -9.685335,-1.98775 -9.685335,-6.90434 0,-2.332 -2.361492,-3.21846 -5.447882,-2.04501 -4.663813,1.77318 -5.864704,7.08141 -2.554171,11.290074 1.704916,2.16745 2.573761,2.462745 5.923981,2.013386 3.315597,-0.444715 4.343941,-0.108686 6.613796,2.161169 2.067298,2.067298 2.559134,3.330897 2.130565,5.473742 -0.44993,2.249649 -0.0093,3.191071 2.28894,4.890221 1.565375,1.157332 3.601283,4.081562 4.524239,6.498288 1.404605,3.677905 1.487679,5.101225 0.50972,8.733088 -1.357015,5.039569 -6.381875,10.526608 -10.580243,11.553398 -1.59992,0.39128 -3.982131,1.54281 -5.293804,2.55894 -3.256055,2.52241 -7.311432,2.33192 -9.940827,-0.46694 z m 7.895253,-3.26937 c 0.953882,-1.149362 1.026152,-2.040883 0.263458,-3.250005 -1.337248,-2.119977 -4.311451,-2.147485 -5.633186,-0.0521 -2.386917,3.784055 2.48388,6.779335 5.369728,3.302105 z M 86.330933,71.59977 c 1.26548,-1.524819 -0.11406,-5.563922 -1.90035,-5.563922 -3.33631,0 -5.5553,4.157965 -3.37994,6.333333 1.14913,1.149125 4.03732,0.728276 5.28029,-0.769411 z M 54.344154,69.583836 c 2.013224,-2.425787 0.301659,-5.714568 -2.787464,-5.356127 -2.96929,0.344536 -4.046672,3.050153 -2.132841,5.356178 1.535391,1.850033 3.384887,1.850014 4.920305,-5.1e-5 z m 9.024513,-19.833172 c -0.03012,-2.38953 -1.750041,-3.88424 -4.087561,-3.55231 -2.94182,0.41774 -3.767572,3.72784 -1.367726,5.48265 1.955292,1.42974 5.481912,0.18186 5.455287,-1.93034 z M 18.88398,91.532074 C 10.556003,88.590767 5.2128154,79.098939 7.3717374,71.081317 11.38645,56.171808 31.220076,53.368174 38.982037,66.612958 46.826305,79.998188 33.391372,96.655851 18.88398,91.532074 Z m 12.614459,-5.247232 c 8.171204,-4.750834 7.480905,-18.60519 -1.144474,-22.969683 -6.900139,-3.491511 -15.729557,-0.09419 -18.481281,7.111094 -4.7419016,12.416494 7.931882,22.657544 19.625755,15.858589 z M 21.88398,80.249403 c -5.082078,-2.661628 -9,-5.350211 -9,-6.17604 0,-0.861369 1.516351,-1.821094 3.689205,-2.334962 2.934173,-0.693916 3.817133,-1.454927 4.314279,-3.718417 0.831875,-3.787499 3.298867,-5.911219 4.553428,-3.919834 2.075358,3.29425 7.940437,19.13097 7.405592,19.996368 -0.85834,1.388822 -1.181845,1.275293 -10.962504,-3.847115 z m 4.334959,-4.834329 c -0.681957,-1.583574 -1.331028,-3.023949 -1.44238,-3.200832 -0.111352,-0.176883 -1.114041,0.458916 -2.228197,1.412886 l -2.02574,1.734493 3.180679,1.724602 c 1.749373,0.948531 3.310027,1.608384 3.46812,1.46634 0.158092,-0.142045 -0.270525,-1.553915 -0.952482,-3.137489 z m 62.331474,-29.97337 c -1.23947,-4.21294 -4.03397,-10.61182 -6.21001,-14.21974 -4.31371,-7.15224 -4.82163,-10.56057 -2.34996,-15.76922 3.24528,-6.8389188 12.49123,-9.4839392 19.0892,-5.4608998 7.771467,4.7385598 8.765227,12.2555898 2.880597,21.7894398 -2.066387,3.34781 -4.764647,9.38715 -5.996147,13.42075 -3.02089,9.894555 -4.55854,9.944266 -7.41368,0.23967 z M 100.3172,26.318524 c 1.96254,-3.68925 2.09759,-4.65928 1.07859,-7.7469 -2.342157,-7.09679 -10.722777,-8.9786488 -16.088737,-3.6127 -4.08694,4.08694 -3.82908,7.69205 1.13595,15.8817 2.23247,3.68237 4.31754,7.95181 4.63349,9.48764 l 0.57446,2.79242 3.2114,-6.29242 c 1.76628,-3.46083 4.22096,-8.19021 5.454847,-10.50974 z m -12.298357,0.64474 c -3.67782,-2.89297 -3.64427,-7.98826 0.0719,-10.91136 6.98249,-5.49243 15.141227,4.2269 8.83873,10.5294 -2.99863,2.99863 -5.45043,3.10373 -8.91059,0.38196 z m 6.741,-4.15865 c 1.39189,-2.21026 -1.20297,-5.15608 -3.69832,-4.19852 -1.66956,0.64067 -2.3129,4.46107 -0.97631,5.79766 1.10672,1.10671 3.48244,0.294 4.67463,-1.59914 z"
       id="path2"
       sodipodi:nodetypes="sssssssssssssssssssscsssssssssssssssssssssssssssssssssssssssssssssssssssssscssssssssssssssscssscsssssss" />
  </g>
</svg>
