<svg width="48" height="48" viewBox="0 0 48 48" fill="none" xmlns="http://www.w3.org/2000/svg">
<path d="M30 44V30H26V18C26 16.9 26.392 15.9587 27.176 15.176C27.96 14.3933 28.9013 14.0013 30 14H38C39.1 14 40.042 14.392 40.826 15.176C41.61 15.96 42.0013 16.9013 42 18V30H38V44H30ZM34 12C32.9 12 31.9587 11.6087 31.176 10.826C30.3933 10.0433 30.0013 9.10135 30 8.00001C29.9987 6.89868 30.3907 5.95735 31.176 5.17601C31.9613 4.39468 32.9027 4.00268 34 4.00001C35.0973 3.99735 36.0393 4.38935 36.826 5.17601C37.6127 5.96268 38.004 6.90401 38 8.00001C37.996 9.09601 37.6047 10.038 36.826 10.826C36.0473 11.614 35.1053 12.0053 34 12Z" fill="#FBFCFF"/>
<g clip-path="url(#clip0_641_3098)">
<path d="M14.997 12C16.0578 12 17.0752 12.4214 17.8254 13.1716C18.5755 13.9217 18.997 14.9391 18.997 16C18.997 17.0609 18.5755 18.0783 17.8254 18.8284C17.0752 19.5786 16.0578 20 14.997 20C13.9361 20 12.9187 19.5786 12.1685 18.8284C11.4184 18.0783 10.997 17.0609 10.997 16C10.997 14.9391 11.4184 13.9217 12.1685 13.1716C12.9187 12.4214 13.9361 12 14.997 12ZM14.497 36V42C14.497 43.1063 13.6032 44 12.497 44C11.3907 44 10.497 43.1063 10.497 42V30.7812L9.69072 32.0625C9.10322 33 7.86572 33.275 6.93447 32.6875C6.00322 32.1 5.72197 30.8625 6.30947 29.9312L9.54072 24.8C10.6407 23.0563 12.5595 21.9937 14.6157 21.9937H15.3845C17.447 21.9937 19.3657 23.05 20.4595 24.8L23.6907 29.9375C24.2782 30.875 23.997 32.1063 23.0657 32.6938C22.1345 33.2813 20.897 33 20.3095 32.0688L19.497 30.7812V42C19.497 43.1063 18.6032 44 17.497 44C16.3907 44 15.497 43.1063 15.497 42V36H14.497Z" fill="#FBFCFF"/>
</g>
<defs>
<clipPath id="clip0_641_3098">
<rect width="17.9953" height="32" fill="white" transform="translate(6.00244 12)"/>
</clipPath>
</defs>
</svg>
