<?xml version="1.0" encoding="UTF-8" standalone="no"?>
<!-- Created with Inkscape (http://www.inkscape.org/) -->

<svg
   version="1.1"
   id="svg1"
   width="199"
   height="174"
   viewBox="0 0 199 174"
   sodipodi:docname="lezci logo.svg"
   inkscape:version="1.4 (86a8ad7, 2024-10-11)"
   xml:space="preserve"
   xmlns:inkscape="http://www.inkscape.org/namespaces/inkscape"
   xmlns:sodipodi="http://sodipodi.sourceforge.net/DTD/sodipodi-0.dtd"
   xmlns="http://www.w3.org/2000/svg"
   xmlns:svg="http://www.w3.org/2000/svg"><defs
     id="defs1" /><sodipodi:namedview
     id="namedview1"
     pagecolor="#ffffff"
     bordercolor="#000000"
     borderopacity="0.25"
     inkscape:showpageshadow="2"
     inkscape:pageopacity="0.0"
     inkscape:pagecheckerboard="0"
     inkscape:deskcolor="#d1d1d1"
     inkscape:zoom="2"
     inkscape:cx="144.75"
     inkscape:cy="138.25"
     inkscape:window-width="1920"
     inkscape:window-height="1057"
     inkscape:window-x="-8"
     inkscape:window-y="-8"
     inkscape:window-maximized="1"
     inkscape:current-layer="g1" /><g
     inkscape:groupmode="layer"
     inkscape:label="Image"
     id="g1"><g
       id="g4"
       transform="translate(-21.612698,-546.52857)"><g
         id="g2"
         transform="translate(312.08247,274.52975)"><path
           id="path1-8-1"
           style="fill:#ffffff;fill-opacity:1"
           d="m -211.81175,312.5863 -0.002,0.004 59.6289,36.15234 c 0,0 0.002,-0.004 0.002,-0.004 z m 2.17969,11.33007 -8.30274,14.16993 c 0,0 2.81177,1.58636 4.2168,2.4375 l 2.66992,-4.56641 13.59571,7.62695 -2.73438,4.91602 4.51758,2.64648 c 2.70268,-4.56373 8.44531,-14.5039 8.44531,-14.5039 l -4.74804,-2.6504 -2.46876,4.25196 c 0,0 -11.78359,-6.65935 -13.42187,-7.63477 l 2.375,-4.16992 c -0.006,0.0119 -4.14453,-2.52344 -4.14453,-2.52344 z m 24.45117,14.89844 -3.37695,5.93359 9.61718,15.63086 -18.32226,0.33204 -3.31445,5.63281 22.18164,12.60547 3.22851,-5.75196 -10.71289,-6.14843 h 13.66602 l 2.8164,-4.65235 -7.30664,-11.55469 10.80274,6.47852 3.34179,-5.58008 c 0.0876,-0.12223 -22.62109,-12.92578 -22.62109,-12.92578 z m -29.42383,4.82813 c -18.08606,0.7544 -15.6447,26.52151 0.86524,26.25 1.92474,-0.0316 5.0081,-0.76479 6.69726,-1.94141 11.35756,-7.91137 3.84939,-18.7503 2.77344,-20.32227 l -3.71094,3.75391 c 0,0 4.52081,5.6539 0.0742,10.20898 -4.58754,4.87292 -13.86963,1.23449 -13.78711,-5.40429 0.0286,-2.30521 2.43017,-8.43269 9.73242,-7.1543 l 1.24805,-5.19141 c -1.39011,-0.18716 -2.68684,-0.24951 -3.89258,-0.19921 z m -17.71289,19.87304 -10.52539,18.06055 4.08594,2.41601 7.20312,-12.58007 6.08008,20.22265 4.4336,2.46289 10.60156,-18.59375 -4.6543,-2.5332 -6.88867,11.72852 -6.56445,-19.01172 z m 35.07617,9.40235 c -7.75033,-0.008 -13.90273,5.75838 -13.91796,13.69921 0.42088,5.51489 1.60771,7.35416 5.88671,10.87305 1.79285,1.47438 2.98828,1.76563 2.98829,1.76563 0,0 -1.90209,0.0252 -4.41016,-0.89063 -1.41336,-0.51612 -2.74219,-1.35742 -2.74219,-1.35742 0,0 0.15899,0.977 -0.15234,2.88281 -0.44751,2.7394 -1.13086,4.67969 -1.13086,4.67969 l 4.02929,2.26758 c 0,0 0.99786,-1.00678 2.99024,-2.67969 1.61834,-1.35883 4.90674,-2.6975 7.21484,-3.31641 5.6598,-1.51763 9.65907,-4.52589 11.33594,-8.52734 4.06893,-9.70956 -1.96271,-19.38582 -12.0918,-19.39648 z m -0.22656,6 c 7.27721,0.008 10.68269,9.79212 5.20899,13.75586 -3.32469,2.40756 -4.63956,2.41027 -8.14844,1.25 -3.06593,-1.01379 -5.1372,-4.8214 -4.98828,-7.7461 0.18367,-3.60736 3.92088,-7.26399 7.92773,-7.25976 z m -46.57422,4.85351 -10.08984,17.69336 c 0,0 5.19452,2.93499 11.10351,6.2793 6.36746,3.60382 10.83594,6.28711 10.83594,6.28711 l 10.01953,-17.80469 -4.55273,-2.54297 -7.00586,12.00195 -4.27344,-2.47265 c 2.30286,-4.01588 4.5813,-8.04654 6.84961,-12.08203 l -4.20898,-2.30664 -7.01368,11.97851 -4.47656,-2.50586 c 0,0 5.02862,-9.0127 6.89258,-12.13867 -1.48056,-0.83808 -2.63803,-1.48498 -4.08008,-2.38672 z m 30.96289,16.2832 c -1.9736,0.18332 -3.57617,1.47266 -3.57617,1.47266 -8.44065,6.04681 -4.49217,18.36467 5.31055,18.375 2.85659,0.003 4.88689,-0.65542 6.42773,-2.08789 2.65708,-2.47022 4.14615,-5.98876 4.10938,-9.71484 l -0.0274,-2.68555 -3.22656,2.21094 c 0,0 -1.96277,4.87802 -3.80664,6.03125 -2.05469,1.28512 -5.38467,1.49108 -7.42969,-0.77344 -2.61986,-3.02023 -1.11949,-7.00717 1.32618,-9.49609 z m -25.01367,13.60547 -6.51562,11.41211 c 0,0 -16.6035,-9.83607 -17.35938,-10.39062 l -3.38086,5.2539 c 10.63851,6.30112 17.34797,10.14065 22.7168,13 2.65668,-4.86016 5.47344,-9.89975 9.18164,-16.4707 -1.57107,-0.94636 -4.64258,-2.80469 -4.64258,-2.80469 z m 16.85352,10.19727 c -0.25038,0.0148 -0.50222,0.0599 -0.75196,0.13867 -2.60198,0.82103 -2.58107,4.04068 -1.10156,5.26953 1.37684,1.14358 4.91132,1.04212 5.13086,-2.25586 0.12399,-1.86258 -1.52467,-3.25575 -3.27734,-3.15234 z" /><path
           d="m -288.49521,444.37596 76.68911,-131.78333 59.63024,36.15314 c 0.12357,0.034 -55.60761,95.69006 -55.60761,95.69006 z m 55.05378,-27.9065 c -1.57107,-0.94636 -4.64319,-2.80496 -4.64319,-2.80496 l -6.51565,11.41115 c 0,0 -16.60376,-9.83504 -17.35964,-10.38959 l -3.38022,5.25281 c 10.63851,6.30112 17.34753,10.14116 22.71637,13.00051 2.65668,-4.86016 5.47414,-9.89899 9.18234,-16.46994 z m 15.48829,10.54374 c 0.1417,-2.12867 -2.03252,-3.64279 -4.03044,-3.01238 -2.60198,0.82103 -2.58009,4.04055 -1.10058,5.2694 1.37684,1.14358 4.91148,1.04096 5.13102,-2.25702 z m 13.0449,-9.19538 c 2.65708,-2.47022 4.14499,-5.98867 4.10822,-9.71475 l -0.0265,-2.68493 -3.22663,2.21128 c 0,0 -1.96292,4.87808 -3.80679,6.03131 -2.05469,1.28512 -5.38516,1.49084 -7.43018,-0.77368 -2.61986,-3.02023 -1.11832,-7.00791 1.32735,-9.49683 l 0.89144,-3.33241 c -1.9736,0.18332 -3.57561,1.47436 -3.57561,1.47436 -8.44065,6.04681 -4.49114,18.36458 5.31158,18.37491 2.85659,0.003 4.88626,-0.65679 6.4271,-2.08926 z m -17.25579,-21.58658 -4.55388,-2.54315 -7.00508,12.00216 -4.27239,-2.47414 c 2.30286,-4.01588 4.58068,-8.04614 6.84899,-12.08163 l -4.2103,-2.30705 -7.01214,11.97953 -4.477,-2.50648 c 0,0 5.02841,-9.01297 6.89237,-12.13894 -1.48056,-0.83808 -2.63837,-1.48427 -4.08041,-2.38601 l -10.0896,17.69348 c 0,0 5.19417,2.93579 11.10315,6.2801 6.36747,3.60382 10.83713,6.28718 10.83713,6.28718 z m 18.47227,7.93036 c 1.61834,-1.35883 4.9069,-2.69707 7.215,-3.31598 5.6598,-1.51763 9.65896,-4.52605 11.33583,-8.5275 4.06893,-9.70956 -1.96363,-19.38555 -12.09272,-19.39621 -7.75033,-0.008 -13.90247,5.7585 -13.91771,13.69934 0.42089,5.51488 1.60937,7.3538 5.88837,10.87269 1.79285,1.47438 2.98727,1.76506 2.98727,1.76506 0,0 -1.90167,0.0264 -4.40974,-0.88942 -1.41336,-0.51612 -2.74341,-1.35741 -2.74341,-1.35741 0,0 0.16037,0.97601 -0.15096,2.88182 -0.44751,2.7394 -1.13095,4.68112 -1.13095,4.68112 l 4.02874,2.26697 c 0,0 0.998,-1.00775 2.99038,-2.68066 z m 3.29299,-10.2346 c -3.06593,-1.01379 -5.13801,-4.82096 -4.98909,-7.74566 0.18367,-3.60736 3.92127,-7.26389 7.92812,-7.25966 7.27721,0.008 10.68307,9.79175 5.20937,13.75549 -3.32469,2.40756 -4.63952,2.4101 -8.1484,1.24983 z m -14.68643,-20.9518 -6.88692,11.72898 -6.56522,-19.01244 -3.7716,-2.17124 -10.52609,18.0596 4.0867,2.41669 7.20363,-12.58098 6.08017,20.22229 4.4334,2.46297 10.60044,-18.59233 z m 39.92688,0.226 -10.7138,-6.14793 13.6671,-7e-5 2.81526,-4.65236 -7.30515,-11.55453 10.80214,6.47798 3.3417,-5.58007 c 0.0876,-0.12223 -22.62085,-12.92541 -22.62085,-12.92541 l -3.37697,5.93341 9.61753,15.6303 -18.32183,0.33325 -3.31486,5.6323 22.18024,12.60567 z m -31.87443,-5.24561 c 11.35756,-7.91137 3.84852,-18.75135 2.77257,-20.32332 l -3.70982,3.75409 c 0,0 4.52059,5.65478 0.074,10.20986 -4.58754,4.87292 -13.87073,1.23415 -13.78821,-5.40463 0.0286,-2.30521 2.43012,-8.43298 9.73237,-7.15459 l 1.24924,-5.19173 c -22.24183,-2.99462 -20.63844,26.3414 -3.02784,26.05178 1.92474,-0.0316 5.00856,-0.76484 6.69772,-1.94146 z m 19.81727,-31.30838 -4.74781,-2.65118 -2.46934,4.25302 c 0,0 -11.78215,-6.66029 -13.42043,-7.63571 l 2.37355,-4.16913 c -0.006,0.0119 -4.1437,-2.52349 -4.1437,-2.52349 l -8.30354,14.16836 c 0,0 2.8128,1.58666 4.21783,2.4378 l 2.6705,-4.56618 13.59523,7.62729 -2.73419,4.91542 4.51751,2.64775 c 2.70268,-4.56373 8.44439,-14.50395 8.44439,-14.50395 z"
           style="fill:#ff0000;fill-opacity:1"
           id="path1-2" /></g><g
         id="g3"
         transform="translate(167.50426,324.51384)"><path
           d="m -56,394.4345 c 0,0 53.30173,-92.38491 53.86332,-92.43447 0.64937,-0.0573 53.72587,92.55997 53.72587,92.55997 z"
           style="fill:#ffffff;fill-opacity:1"
           id="path1-1-6"
           sodipodi:nodetypes="cscc" /><path
           d="m -56.000254,394.43449 c 0,0 53.3017301,-92.38491 53.8633201,-92.43447 0.64937,-0.0573 53.7258699,92.55997 53.7258699,92.55997 z m 54.7377201,-49.48213 20.7366299,6.69185 c 0.10472,0.0527 -22.2425699,-36.40127 -22.2425699,-36.40127 l -22.2052601,37.60272 22.2741001,8.69 z"
           style="fill:#1c112b;fill-opacity:1"
           id="path1-1" /></g><path
         d="m 104.71403,580.2127 c -0.5063,-0.18637 19.19066,-32.02876 19.19066,-32.02876 l 36.27598,65.86853 z"
         style="fill:#ff6600;fill-opacity:1"
         id="path1-7" /></g></g></svg>
